<?xml version="1.0" encoding="UTF-8"?><svg id="Layer_2" xmlns="http://www.w3.org/2000/svg" viewBox="0 0 1747.68 303.08"><defs><style>.cls-1{fill:#fff;}.cls-2{fill:#d9ff41;}</style></defs><g id="Layer_1-2"><g><path class="cls-1" d="M122.09,144.05c-9.2-3.4-21.06-6.69-35.59-9.87-9.31-2.04-16.58-3.86-21.8-5.45-5.22-1.59-9.53-3.69-12.94-6.3-3.41-2.61-5.11-5.96-5.11-10.05,0-3.18,1.13-6.13,3.41-8.85,2.27-2.72,5.67-4.94,10.22-6.64,4.54-1.7,10.22-2.56,17.03-2.56,10.67,0,19.29,2.1,25.88,6.3,6.58,4.2,11.01,9.25,13.28,15.15h38.14c-3.41-14.98-11.58-27.64-24.52-37.97-12.94-10.33-30.54-15.49-52.78-15.49-14.53,0-26.96,2.27-37.29,6.81-10.33,4.54-18.16,10.68-23.5,18.39-5.34,7.72-8.01,16.01-8.01,24.86,0,12.26,3.41,21.97,10.22,29.12,6.81,7.15,14.82,12.43,24.01,15.84,9.19,3.41,21.05,6.7,35.58,9.88,9.31,2.04,16.57,3.86,21.8,5.45,5.22,1.59,9.53,3.69,12.94,6.3,3.41,2.61,5.11,5.96,5.11,10.05,0,6.59-2.84,11.81-8.51,15.66-5.68,3.86-14.76,5.79-27.24,5.79-11.35,0-20.72-2.55-28.1-7.66-7.38-5.11-12.55-11.41-15.49-18.9H0c2.73,10.44,7.49,20.04,14.3,28.78,6.81,8.74,15.89,15.89,27.24,21.45,11.35,5.56,24.97,8.34,40.87,8.34s28.78-2.44,40.01-7.32c11.24-4.88,19.69-11.35,25.37-19.41,5.67-8.06,8.51-16.97,8.51-26.73,0-12.26-3.41-21.97-10.22-29.12-6.81-7.15-14.81-12.43-24.01-15.84Z"/><path class="cls-1" d="M473.36,74.07c-13.62-7.83-28.95-11.75-45.97-11.75s-32.01,3.92-45.63,11.75c-13.62,7.83-24.41,18.68-32.35,32.52-7.95,13.85-11.92,29.18-11.92,45.97s3.97,32.07,11.92,45.8c7.94,13.74,18.73,24.52,32.35,32.35,13.62,7.83,28.83,11.75,45.63,11.75,22.93,0,41.72-5.67,56.36-17.03,14.64-11.35,24.8-25.2,30.48-41.55h-38.82c-3.87,7.27-9.88,13.34-18.05,18.22-8.17,4.88-18.17,7.32-29.97,7.32-8.63,0-16.69-2.1-24.18-6.3-7.49-4.2-13.68-9.93-18.56-17.2-4.88-7.26-7.89-15.32-9.02-24.18h141.33v-10.22c0-16.35-3.87-31.38-11.58-45.12-7.72-13.73-18.39-24.52-32.01-32.35Zm-96.72,61.47c1.82-7.26,4.99-13.96,9.54-20.09,4.54-6.13,10.39-11.01,17.54-14.64,7.15-3.63,15.03-5.45,23.67-5.45s16.85,1.82,24.01,5.45c7.15,3.63,12.94,8.51,17.37,14.64,4.43,6.13,7.21,12.83,8.34,20.09h-100.46Z"/><path class="cls-1" d="M787.34,200.07c-8.17,6.25-18.39,9.37-30.65,9.37-9.31,0-17.88-2.38-25.71-7.15-7.83-4.77-14.02-11.46-18.56-20.09-4.54-8.62-6.81-18.5-6.81-29.63s2.27-21.34,6.81-29.97c4.54-8.63,10.73-15.32,18.56-20.09,7.83-4.77,16.4-7.15,25.71-7.15,12.03,0,22.02,2.95,29.97,8.85,7.94,5.91,13.62,13.17,17.03,21.8h38.14c-3.18-11.35-8.29-21.8-15.32-31.33-7.04-9.54-16.46-17.31-28.26-23.33-11.81-6.01-25.66-9.02-41.55-9.02s-31.67,3.97-45.29,11.92c-13.62,7.95-24.35,18.79-32.18,32.52-7.83,13.74-11.75,29.01-11.75,45.8s3.92,32.01,11.75,45.63c7.83,13.62,18.56,24.41,32.18,32.35,13.62,7.94,28.72,11.92,45.29,11.92s30.48-3.07,42.4-9.2c11.92-6.13,21.45-14.13,28.61-24.01,7.15-9.88,12.09-20.6,14.81-32.18h-38.14c-3.18,9.08-8.85,16.74-17.03,22.99Z"/><path class="cls-1" d="M955.57,62.32c-13.17,0-24.58,2.78-34.22,8.34-9.65,5.57-16.97,12.43-21.97,20.6h-1.02V0h-37.12V238.38h37.12v-91.95c0-9.99,2.1-18.9,6.3-26.73,4.2-7.83,9.82-13.85,16.86-18.05,7.03-4.2,14.98-6.3,23.84-6.3,12.71,0,22.7,3.69,29.97,11.07,7.26,7.38,10.9,18.45,10.9,33.2v98.76h37.46v-102.84c0-23.16-6.08-41.15-18.22-53.97-12.15-12.82-28.77-19.24-49.89-19.24Z"/><polygon class="cls-1" points="595.27 99.45 647.04 99.45 647.04 66.42 595.27 66.42 595.27 28.96 557.81 28.96 557.81 66.42 535.68 66.42 535.68 99.45 557.81 99.45 557.81 238.4 648.74 238.4 648.74 205.36 595.27 205.36 595.27 99.45"/><polygon class="cls-1" points="332.37 66.42 289.81 66.42 251.77 116.55 239.4 132.83 212.16 132.83 212.16 .02 175.04 .02 175.04 238.4 212.16 238.4 212.16 165.86 242.13 165.86 250 177.03 293.21 238.4 337.48 238.4 272.78 146.45 332.37 66.42"/><path class="cls-1" d="M1230.4,62.31c-13.17,0-24.58,2.78-34.22,8.34-9.65,5.56-16.97,12.43-21.97,20.6h-1.02v-24.86h-37.12V238.38h37.12v-91.95c0-9.99,2.09-18.9,6.3-26.73,4.2-7.83,9.82-13.84,16.86-18.05,7.03-4.2,14.99-6.3,23.84-6.3,12.71,0,22.7,3.69,29.97,11.07,7.26,7.38,10.9,18.45,10.9,33.2v98.76h37.46v-102.85c0-23.16-6.08-41.15-18.22-53.98-12.15-12.82-28.78-19.24-49.89-19.24Z"/><path class="cls-1" d="M1492.61,66.4v24.86h-1.02c-1.59-2.72-4.89-6.47-9.88-11.24-5-4.77-11.52-8.91-19.58-12.43-8.06-3.52-17.43-5.28-28.1-5.28-14.76,0-28.32,3.8-40.69,11.41-12.38,7.61-22.2,18.22-29.46,31.84-7.27,13.62-10.9,28.95-10.9,45.97s3.63,32.64,10.9,46.14c7.26,13.51,17.08,24.12,29.46,31.84,12.37,7.72,25.93,11.58,40.69,11.58,10.67,0,20.03-1.82,28.1-5.45,8.06-3.63,14.59-7.83,19.58-12.6,4.99-4.77,8.29-8.51,9.88-11.24h1.02v58.23h-114.76v33.03h152.22V66.4h-37.46Zm-6.64,114.59c-4.43,8.51-10.5,15.1-18.22,19.75-7.72,4.65-16.24,6.98-25.54,6.98s-18.22-2.33-26.05-6.98c-7.83-4.65-13.96-11.24-18.39-19.75-4.43-8.51-6.64-18.33-6.64-29.46s2.21-20.94,6.64-29.46c4.43-8.51,10.56-15.1,18.39-19.75,7.84-4.65,16.52-6.98,26.05-6.98s17.82,2.33,25.54,6.98c7.71,4.66,13.79,11.24,18.22,19.75,4.43,8.51,6.64,18.34,6.64,29.46s-2.21,20.94-6.64,29.46Z"/><polygon class="cls-2" points="1747.68 132.17 1706.42 132.17 1735.6 103 1707 74.4 1677.83 103.58 1677.83 62.32 1637.39 62.32 1637.39 103.58 1608.21 74.4 1579.62 103 1608.79 132.17 1567.53 132.17 1567.53 172.62 1608.79 172.62 1579.62 201.79 1608.21 230.39 1637.39 201.21 1637.39 242.47 1677.83 242.47 1677.83 201.21 1707 230.39 1735.6 201.79 1706.42 172.62 1747.68 172.62 1747.68 132.17"/><polygon class="cls-1" points="1317.23 47.68 1317.23 83.43 1335.11 83.43 1352.99 0 1317.23 0 1317.23 47.68"/></g></g></svg>