<svg width="20" height="21" viewBox="0 0 20 21" fill="none" xmlns="http://www.w3.org/2000/svg">
<path fill-rule="evenodd" clip-rule="evenodd" d="M10.3914 5.89131C10.6355 5.64723 11.0312 5.64723 11.2753 5.89131L15.4419 10.058C15.686 10.3021 15.686 10.6978 15.4419 10.9419L11.2753 15.1085C11.0312 15.3526 10.6355 15.3526 10.3914 15.1085C10.1473 14.8644 10.1473 14.4687 10.3914 14.2246L14.1161 10.4999L10.3914 6.77519C10.1473 6.53112 10.1473 6.13539 10.3914 5.89131Z" fill="white"/>
<path fill-rule="evenodd" clip-rule="evenodd" d="M4.375 10.5C4.375 10.1548 4.65482 9.875 5 9.875H15C15.3452 9.875 15.625 10.1548 15.625 10.5C15.625 10.8452 15.3452 11.125 15 11.125H5C4.65482 11.125 4.375 10.8452 4.375 10.5Z" fill="white"/>
</svg>
