<svg width="40" height="40" viewBox="0 0 40 40" fill="none" xmlns="http://www.w3.org/2000/svg">
<path fill-rule="evenodd" clip-rule="evenodd" d="M21.1456 8.00011C21.5435 7.93418 21.9487 8.06424 22.2339 8.34941L31.6505 17.7661C31.9357 18.0512 32.0658 18.4565 31.9998 18.8543L29.5665 33.5377C29.4767 34.0798 29.0433 34.4997 28.4985 34.5723L3.49853 37.9057C3.11261 37.9571 2.72474 37.8258 2.44944 37.5505C2.17414 37.2752 2.04283 36.8873 2.09429 36.5014L5.42762 11.5014C5.50025 10.9567 5.92014 10.5233 6.46229 10.4334L21.1456 8.00011ZM7.78346 12.7486L4.7884 35.2116L27.2514 32.2165L29.4284 19.0795L20.9205 10.5715L7.78346 12.7486Z" fill="#D9FF41"/>
<path fill-rule="evenodd" clip-rule="evenodd" d="M19.2172 20.7827C19.7054 21.2709 19.7054 22.0624 19.2172 22.5505L4.2172 37.5505C3.72904 38.0387 2.93758 38.0387 2.44943 37.5505C1.96127 37.0624 1.96127 36.2709 2.44943 35.7827L17.4494 20.7827C17.9376 20.2946 18.729 20.2946 19.2172 20.7827Z" fill="#D9FF41"/>
<path fill-rule="evenodd" clip-rule="evenodd" d="M26.3494 2.44949C26.8376 1.96134 27.629 1.96134 28.1172 2.44949L37.5505 11.8828C38.0387 12.371 38.0387 13.1624 37.5505 13.6506L34.6005 16.6006L34.598 16.6031L31.648 19.5364C31.1588 20.0228 30.3681 20.021 29.8812 19.5324L25.1843 14.8188L25.1812 14.8157L20.4677 10.1188C19.979 9.6319 19.9772 8.84117 20.4636 8.352L23.3994 5.39949L26.3494 2.44949ZM25.1697 7.16475L25.1672 7.16726L23.1168 9.22931L26.9521 13.0511L30.7707 16.8832L32.8328 14.8328L32.8353 14.8303L34.8989 12.7667L27.2333 5.10114L25.1697 7.16475Z" fill="#D9FF41"/>
</svg>
